# xmcd CD database file
#
# Track frame offsets:
#	150
#	12700
#	28137
#	40035
#	57430
#	68060
#	83082
#	96470
#	107847
#	121330
#	132312
#	145175
#	153812
#	166007
#	180175
#	190275
#	201362
#	214295
#	230252
#	241105
#	252292
#	264465
#	275012
#	285812
#	299800
#	310450
#
# Disc length: 4299 seconds
#
# Revision: 0
# Processed by: cddbd v1.5.2PL0 Copyright (c) Steve Scherf et al.
# Submitted via: CDex 1.70beta2
#
DISCID=7e10c91a
DTITLE=Various Artist - Country Music Collection
DYEAR=1990
DGENRE=Country
TTITLE0=Ray Sanders - I Had To Let Her Dance
TTITLE1=Shirley Jennings - All Night Long
TTITLE2=Ray Sanders - I Just Want Your Love
TTITLE3=Tom Holbrook - Daddy How 'em I Doing
TTITLE4=Ray Sanders - Same Old Situation
TTITLE5=Ray Sanders - Pride
TTITLE6=Ray Sanders - He's Reachin' Out
TTITLE7=Ray Pillow - The Waitress
TTITLE8=Ray Sanders - She's Strong Enough
TTITLE9=Shirley Jennings - Big Strong Shoulders
TTITLE10=Ray Sanders - One More Memory
TTITLE11=Webb Pierce - Slowly
TTITLE12=Ray Sanders - You're Laughing I'm Crying
TTITLE13=Shirley Jennings - Let Your Love Rub Off On Me
TTITLE14=Ray Sanders - Where Did My Life Go
TTITLE15=Hank Locklin - I'm Lonely Darling
TTITLE16=Ray Sanders - Call Of The Wild
TTITLE17=Tom Holbrook - Hangin' In
TTITLE18=Ray Sanders - She Still Stnads By Me
TTITLE19=Red Sovine - Why baby Why
TTITLE20=Rays Sanders - Pick Me Up On Your Way Down
TTITLE21=Patsy Cline - I Can See An Angel
TTITLE22=Ray Sanders - When The Neon Lights Come On
TTITLE23=Buddy Mize - Toby And Me
TTITLE24=Ray Sanders - When She Turns You On
TTITLE25=Carl Smith - Kisses Don't Lie
EXTD=YEAR: 1990
EXTT0=
EXTT1=
EXTT2=
EXTT3=
EXTT4=
EXTT5=
EXTT6=
EXTT7=
EXTT8=
EXTT9=
EXTT10=
EXTT11=
EXTT12=
EXTT13=
EXTT14=
EXTT15=
EXTT16=
EXTT17=
EXTT18=
EXTT19=
EXTT20=
EXTT21=
EXTT22=
EXTT23=
EXTT24=
EXTT25=
PLAYORDER=
